<svg xmlns="http://www.w3.org/2000/svg" version="1.1" xmlns:xlink="http://www.w3.org/1999/xlink" xmlns:svgjs="http://svgjs.dev/svgjs" viewBox="0 0 800 800" opacity="0.49"><defs><linearGradient x1="50%" y1="0%" x2="50%" y2="100%" id="cccoil-grad"><stop stop-color="hsl(167, 72%, 60%)" stop-opacity="1" offset="0%"></stop><stop stop-color="hsl(105, 69%, 60%)" stop-opacity="1" offset="100%"></stop></linearGradient></defs><g stroke="url(#cccoil-grad)" fill="none" stroke-linecap="round"><circle r="456" cx="400" cy="400" stroke-width="4" stroke-dasharray="2865 2865" transform="rotate(360, 400, 400)" stroke-dashoffset="471" opacity="0.05"></circle><circle r="432" cx="400" cy="400" stroke-width="4" stroke-dasharray="2564 2714" transform="rotate(340, 400, 400)" stroke-dashoffset="471" opacity="0.10"></circle><circle r="408" cx="400" cy="400" stroke-width="4" stroke-dasharray="2279 2564" transform="rotate(320, 400, 400)" stroke-dashoffset="471" opacity="0.16"></circle><circle r="384" cx="400" cy="400" stroke-width="4" stroke-dasharray="2011 2413" transform="rotate(300, 400, 400)" stroke-dashoffset="471" opacity="0.21"></circle><circle r="360" cx="400" cy="400" stroke-width="4" stroke-dasharray="1759 2262" transform="rotate(280, 400, 400)" stroke-dashoffset="471" opacity="0.26"></circle><circle r="336" cx="400" cy="400" stroke-width="4" stroke-dasharray="1525 2111" transform="rotate(260, 400, 400)" stroke-dashoffset="471" opacity="0.31"></circle><circle r="312" cx="400" cy="400" stroke-width="4" stroke-dasharray="1307 1960" transform="rotate(240, 400, 400)" stroke-dashoffset="471" opacity="0.37"></circle><circle r="288" cx="400" cy="400" stroke-width="4" stroke-dasharray="1106 1810" transform="rotate(220, 400, 400)" stroke-dashoffset="471" opacity="0.42"></circle><circle r="264" cx="400" cy="400" stroke-width="4" stroke-dasharray="922 1659" transform="rotate(200, 400, 400)" stroke-dashoffset="471" opacity="0.47"></circle><circle r="240" cx="400" cy="400" stroke-width="4" stroke-dasharray="754 1508" transform="rotate(180, 400, 400)" stroke-dashoffset="471" opacity="0.53"></circle><circle r="216" cx="400" cy="400" stroke-width="4" stroke-dasharray="603 1357" transform="rotate(160, 400, 400)" stroke-dashoffset="471" opacity="0.58"></circle><circle r="192" cx="400" cy="400" stroke-width="4" stroke-dasharray="469 1206" transform="rotate(140, 400, 400)" stroke-dashoffset="471" opacity="0.63"></circle><circle r="168" cx="400" cy="400" stroke-width="4" stroke-dasharray="352 1056" transform="rotate(120, 400, 400)" stroke-dashoffset="471" opacity="0.68"></circle><circle r="144" cx="400" cy="400" stroke-width="4" stroke-dasharray="251 905" transform="rotate(100, 400, 400)" stroke-dashoffset="471" opacity="0.74"></circle><circle r="120" cx="400" cy="400" stroke-width="4" stroke-dasharray="168 754" transform="rotate(80, 400, 400)" stroke-dashoffset="471" opacity="0.79"></circle><circle r="96" cx="400" cy="400" stroke-width="4" stroke-dasharray="101 603" transform="rotate(60, 400, 400)" stroke-dashoffset="471" opacity="0.84"></circle><circle r="72" cx="400" cy="400" stroke-width="4" stroke-dasharray="50 452" transform="rotate(40, 400, 400)" stroke-dashoffset="471" opacity="0.89"></circle><circle r="48" cx="400" cy="400" stroke-width="4" stroke-dasharray="17 302" transform="rotate(20, 400, 400)" stroke-dashoffset="471" opacity="0.95"></circle><circle r="24" cx="400" cy="400" stroke-width="4" stroke-dasharray="0 151" stroke-dashoffset="471" opacity="1.00"></circle></g></svg>