<svg xmlns="http://www.w3.org/2000/svg" version="1.1" xmlns:xlink="http://www.w3.org/1999/xlink" xmlns:svgjs="http://svgjs.dev/svgjs" viewBox="0 0 2400 800" opacity="1"><defs><linearGradient x1="50%" y1="0%" x2="50%" y2="100%" id="sssurf-grad"><stop stop-color="hsl(105, 69%, 40%)" stop-opacity="1" offset="0%"></stop><stop stop-color="hsla(105, 69%, 60%, 0.91)" stop-opacity="1" offset="100%"></stop></linearGradient></defs><g fill="url(#sssurf-grad)" transform="matrix(1,0,0,1,9.9305419921875,136.00781631469727)"><path d="M-10,10C27.797619047619044,12.5,97.91666666666666,37,171.42857142857142,22C244.94047619047618,7,271.42857142857144,-60.75,342.85714285714283,-62C414.2857142857142,-63.25,442.8571428571428,10.583333333333334,514.2857142857142,16C585.7142857142857,21.416666666666664,614.2857142857142,-39.75,685.7142857142857,-36C757.1428571428571,-32.25,785.7142857142857,38.791666666666664,857.1428571428571,34C928.5714285714286,29.208333333333332,957.142857142857,-60.875,1028.5714285714284,-59C1099.9999999999998,-57.125,1128.5714285714287,37.583333333333336,1200,43C1271.4285714285713,48.416666666666664,1300,-37.583333333333336,1371.4285714285713,-33C1442.8571428571427,-28.416666666666668,1471.4285714285713,63.75,1542.8571428571427,65C1614.285714285714,66.25,1642.857142857143,-32.625,1714.2857142857142,-27C1785.7142857142856,-21.375,1814.2857142857142,85.95833333333333,1885.7142857142856,92C1957.1428571428569,98.04166666666667,1985.7142857142856,4.291666666666666,2057.142857142857,2C2128.5714285714284,-0.2916666666666665,2157.142857142857,81.625,2228.5714285714284,81C2300,80.375,2312.2023809523807,-67.45833333333333,2400,-1C2487.7976190476193,65.45833333333333,3254.1666666666665,212.29166666666669,2650,400C2045.8333333333335,587.7083333333333,156.25,795.8333333333334,-500,900" transform="matrix(1,0,0,1,0,98)" opacity="0.05"></path><path d="M-10,10C27.797619047619044,12.5,97.91666666666666,37,171.42857142857142,22C244.94047619047618,7,271.42857142857144,-60.75,342.85714285714283,-62C414.2857142857142,-63.25,442.8571428571428,10.583333333333334,514.2857142857142,16C585.7142857142857,21.416666666666664,614.2857142857142,-39.75,685.7142857142857,-36C757.1428571428571,-32.25,785.7142857142857,38.791666666666664,857.1428571428571,34C928.5714285714286,29.208333333333332,957.142857142857,-60.875,1028.5714285714284,-59C1099.9999999999998,-57.125,1128.5714285714287,37.583333333333336,1200,43C1271.4285714285713,48.416666666666664,1300,-37.583333333333336,1371.4285714285713,-33C1442.8571428571427,-28.416666666666668,1471.4285714285713,63.75,1542.8571428571427,65C1614.285714285714,66.25,1642.857142857143,-32.625,1714.2857142857142,-27C1785.7142857142856,-21.375,1814.2857142857142,85.95833333333333,1885.7142857142856,92C1957.1428571428569,98.04166666666667,1985.7142857142856,4.291666666666666,2057.142857142857,2C2128.5714285714284,-0.2916666666666665,2157.142857142857,81.625,2228.5714285714284,81C2300,80.375,2312.2023809523807,-67.45833333333333,2400,-1C2487.7976190476193,65.45833333333333,3254.1666666666665,212.29166666666669,2650,400C2045.8333333333335,587.7083333333333,156.25,795.8333333333334,-500,900" transform="matrix(1,0,0,1,0,196)" opacity="0.37"></path><path d="M-10,10C27.797619047619044,12.5,97.91666666666666,37,171.42857142857142,22C244.94047619047618,7,271.42857142857144,-60.75,342.85714285714283,-62C414.2857142857142,-63.25,442.8571428571428,10.583333333333334,514.2857142857142,16C585.7142857142857,21.416666666666664,614.2857142857142,-39.75,685.7142857142857,-36C757.1428571428571,-32.25,785.7142857142857,38.791666666666664,857.1428571428571,34C928.5714285714286,29.208333333333332,957.142857142857,-60.875,1028.5714285714284,-59C1099.9999999999998,-57.125,1128.5714285714287,37.583333333333336,1200,43C1271.4285714285713,48.416666666666664,1300,-37.583333333333336,1371.4285714285713,-33C1442.8571428571427,-28.416666666666668,1471.4285714285713,63.75,1542.8571428571427,65C1614.285714285714,66.25,1642.857142857143,-32.625,1714.2857142857142,-27C1785.7142857142856,-21.375,1814.2857142857142,85.95833333333333,1885.7142857142856,92C1957.1428571428569,98.04166666666667,1985.7142857142856,4.291666666666666,2057.142857142857,2C2128.5714285714284,-0.2916666666666665,2157.142857142857,81.625,2228.5714285714284,81C2300,80.375,2312.2023809523807,-67.45833333333333,2400,-1C2487.7976190476193,65.45833333333333,3254.1666666666665,212.29166666666669,2650,400C2045.8333333333335,587.7083333333333,156.25,795.8333333333334,-500,900" transform="matrix(1,0,0,1,0,294)" opacity="0.68"></path><path d="M-10,10C27.797619047619044,12.5,97.91666666666666,37,171.42857142857142,22C244.94047619047618,7,271.42857142857144,-60.75,342.85714285714283,-62C414.2857142857142,-63.25,442.8571428571428,10.583333333333334,514.2857142857142,16C585.7142857142857,21.416666666666664,614.2857142857142,-39.75,685.7142857142857,-36C757.1428571428571,-32.25,785.7142857142857,38.791666666666664,857.1428571428571,34C928.5714285714286,29.208333333333332,957.142857142857,-60.875,1028.5714285714284,-59C1099.9999999999998,-57.125,1128.5714285714287,37.583333333333336,1200,43C1271.4285714285713,48.416666666666664,1300,-37.583333333333336,1371.4285714285713,-33C1442.8571428571427,-28.416666666666668,1471.4285714285713,63.75,1542.8571428571427,65C1614.285714285714,66.25,1642.857142857143,-32.625,1714.2857142857142,-27C1785.7142857142856,-21.375,1814.2857142857142,85.95833333333333,1885.7142857142856,92C1957.1428571428569,98.04166666666667,1985.7142857142856,4.291666666666666,2057.142857142857,2C2128.5714285714284,-0.2916666666666665,2157.142857142857,81.625,2228.5714285714284,81C2300,80.375,2312.2023809523807,-67.45833333333333,2400,-1C2487.7976190476193,65.45833333333333,3254.1666666666665,212.29166666666669,2650,400C2045.8333333333335,587.7083333333333,156.25,795.8333333333334,-500,900" transform="matrix(1,0,0,1,0,392)" opacity="1.00"></path></g></svg>